# xmcd
#
# Track frame offsets: 
#        150
#        13851
#        28022
#        42412
#        58589
#        73449
#        89790
#        106521
#        122500
#        140250
#        156367
#        174173
#        190928
#        207171
#        222328
#        240119
#        258978
#        273997
#        290361
#        306445
#
# Disc length: 4309 seconds
#
# Revision: 0
# Processed by: cddbd v1.4PL0 Copyright (c) Steve Scherf et al.
# Submitted via: ExactAudioCopy v0.90b3
#
DISCID=2310d314
DTITLE=Alabama - 41 And Counting (17 Years Of No.1's)
DYEAR=1900
DGENRE=Country
TTITLE0=Tennessee River
TTITLE1=Why Lady Why
TTITLE2=Old Flame
TTITLE3=Feels So Right
TTITLE4=Love In The First Degree
TTITLE5=Mountain Music
TTITLE6=Take Me Down
TTITLE7=Close Enough To Perfect
TTITLE8=Dixieland Delight
TTITLE9=The Closer You Get
TTITLE10=Lady Down On Love
TTITLE11=Roll On
TTITLE12=When We Make Love
TTITLE13=If You're Gonna Play In Texas
TTITLE14=There's A Fire In The Night
TTITLE15=There's No Way
TTITLE16=Forty Hour Week
TTITLE17=Can't Keep A Good Man Down
TTITLE18=She And I
TTITLE19=Touch Me When We're Dancing
EXTD=
EXTT0=
EXTT1=
EXTT2=
EXTT3=
EXTT4=
EXTT5=
EXTT6=
EXTT7=
EXTT8=
EXTT9=
EXTT10=
EXTT11=
EXTT12=
EXTT13=
EXTT14=
EXTT15=
EXTT16=
EXTT17=
EXTT18=
EXTT19=
PLAYORDER=
